<?xml version="1.0" encoding="utf-8"?>
<!-- Generator: Adobe Illustrator 19.2.1, SVG Export Plug-In . SVG Version: 6.00 Build 0)  -->
<svg version="1.1" id="Layer_1" xmlns="http://www.w3.org/2000/svg" xmlns:xlink="http://www.w3.org/1999/xlink" x="0px" y="0px"
	 width="40px" height="120px" viewBox="0 0 40 120" enable-background="new 0 0 40 120" xml:space="preserve">
<path id="fa-share-alt" fill="#FFFFFF" d="M15,11.4c1,0,1.8,0.3,2.5,1c0.7,0.7,1,1.5,1,2.5c0,1-0.3,1.8-1,2.5c-0.7,0.7-1.5,1-2.5,1
	c-1,0-1.8-0.3-2.5-1c-0.7-0.7-1-1.5-1-2.5c0-0.1,0-0.2,0-0.4l-4-2c-0.7,0.6-1.5,1-2.4,1c-1,0-1.8-0.3-2.5-1s-1-1.5-1-2.5
	c0-1,0.3-1.8,1-2.5c0.7-0.7,1.5-1,2.5-1c0.9,0,1.7,0.3,2.4,1l4-2c0-0.2,0-0.3,0-0.4c0-1,0.3-1.8,1-2.5c0.7-0.7,1.5-1,2.5-1
	c1,0,1.8,0.3,2.5,1c0.7,0.7,1,1.5,1,2.5c0,1-0.3,1.8-1,2.5s-1.5,1-2.5,1c-0.9,0-1.7-0.3-2.4-1l-4,2c0,0.2,0,0.3,0,0.4
	c0,0.1,0,0.2,0,0.4l4,2C13.3,11.7,14.1,11.4,15,11.4z"/>
<path id="fa-envelope" fill="#FFFFFF" d="M20,23.9c0,0.6-0.2,1.1-0.5,1.7c-0.4,0.5-0.8,1-1.4,1.4c-2.8,1.9-4.5,3.2-5.2,3.6
	c-0.1,0.1-0.2,0.2-0.5,0.3s-0.4,0.3-0.6,0.4c-0.2,0.1-0.4,0.2-0.6,0.4S10.8,32,10.6,32c-0.2,0.1-0.4,0.1-0.6,0.1h0h0
	c-0.2,0-0.4,0-0.6-0.1C9.2,32,9,31.9,8.8,31.7s-0.4-0.3-0.6-0.4C8,31.3,7.8,31.1,7.6,31s-0.4-0.3-0.5-0.3c-0.7-0.5-1.7-1.2-2.9-2
	s-2-1.4-2.3-1.6c-0.5-0.3-0.9-0.7-1.3-1.3S0,24.6,0,24.2c0-0.6,0.2-1.1,0.5-1.5c0.3-0.4,0.7-0.6,1.3-0.6h16.4c0.5,0,0.9,0.2,1.3,0.5
	C19.8,23,20,23.4,20,23.9z M20,27.2v8.9c0,0.5-0.2,0.9-0.5,1.3c-0.4,0.4-0.8,0.5-1.3,0.5H1.8c-0.5,0-0.9-0.2-1.3-0.5
	C0.2,37,0,36.6,0,36.1v-8.9c0.3,0.4,0.7,0.7,1.1,1C3.8,30,5.7,31.3,6.7,32c0.4,0.3,0.8,0.6,1,0.7c0.3,0.2,0.6,0.4,1.1,0.5
	c0.4,0.2,0.8,0.3,1.2,0.3h0h0c0.4,0,0.8-0.1,1.2-0.3c0.4-0.2,0.8-0.4,1.1-0.5c0.3-0.2,0.6-0.4,1-0.7c1.3-0.9,3.1-2.2,5.6-3.9
	C19.3,27.9,19.7,27.6,20,27.2z"/>
<path id="fa-twitter" fill="#FFFFFF" d="M18.8,44.6c-0.5,0.7-1.1,1.4-1.8,1.9c0,0.1,0,0.3,0,0.5c0,1-0.1,1.9-0.4,2.9
	c-0.3,1-0.7,1.9-1.3,2.8c-0.6,0.9-1.3,1.7-2.1,2.3c-0.8,0.7-1.8,1.2-2.9,1.6c-1.1,0.4-2.3,0.6-3.6,0.6c-2,0-3.9-0.5-5.5-1.6
	c0.3,0,0.6,0,0.9,0c1.7,0,3.2-0.5,4.5-1.5c-0.8,0-1.5-0.3-2.1-0.7c-0.6-0.5-1-1.1-1.3-1.8c0.2,0,0.5,0.1,0.7,0.1
	c0.3,0,0.6,0,0.9-0.1c-0.8-0.2-1.5-0.6-2.1-1.2c-0.5-0.7-0.8-1.4-0.8-2.3v0c0.5,0.3,1,0.4,1.6,0.5c-0.5-0.3-0.9-0.8-1.2-1.3
	c-0.3-0.5-0.4-1.1-0.4-1.7c0-0.7,0.2-1.3,0.5-1.8c0.9,1.1,2,2,3.3,2.7c1.3,0.7,2.7,1,4.1,1.1c-0.1-0.3-0.1-0.6-0.1-0.8
	c0-1,0.4-1.8,1.1-2.6s1.6-1.1,2.6-1.1c1,0,1.9,0.4,2.6,1.1c0.8-0.2,1.6-0.4,2.3-0.9c-0.3,0.9-0.8,1.5-1.6,2
	C17.4,45,18.1,44.9,18.8,44.6z"/>
<path id="fa-facebook" fill="#FFFFFF" d="M14.6,60.8v2.9h-1.8c-0.6,0-1.1,0.1-1.3,0.4c-0.2,0.3-0.3,0.7-0.3,1.2v2.1h3.3L14,70.8
	h-2.8v8.5H7.8v-8.5H4.9v-3.3h2.8v-2.4c0-1.4,0.4-2.5,1.2-3.2s1.8-1.1,3.1-1.1C13.1,60.7,14,60.8,14.6,60.8z"/>
<path id="fa-google" fill="#FFFFFF" d="M9,89.6c0,0.3,0.1,0.5,0.4,0.8c0.2,0.3,0.5,0.5,0.9,0.8c0.3,0.2,0.7,0.5,1,0.8
	c0.3,0.3,0.6,0.7,0.9,1.2c0.2,0.5,0.4,1,0.4,1.6c0,0.7-0.2,1.3-0.5,1.9c-0.5,0.9-1.3,1.6-2.4,2s-2.1,0.6-3.3,0.6
	c-1,0-1.9-0.2-2.8-0.5C2.6,98.5,2,98,1.6,97.3c-0.3-0.4-0.4-0.9-0.4-1.5c0-0.6,0.2-1.2,0.5-1.7C2,93.6,2.4,93.2,3,92.9
	c1-0.6,2.5-1,4.5-1.1c-0.2-0.3-0.4-0.6-0.5-0.8c-0.1-0.2-0.2-0.5-0.2-0.8c0-0.3,0.1-0.6,0.2-0.9c-0.3,0-0.6,0-0.8,0
	c-1.1,0-2-0.4-2.8-1.1c-0.8-0.7-1.1-1.6-1.1-2.7c0-0.6,0.1-1.2,0.4-1.8c0.3-0.6,0.6-1.1,1.1-1.5c0.6-0.5,1.3-0.9,2-1.1
	c0.8-0.2,1.6-0.4,2.4-0.4H13l-1.5,1H10c0.6,0.5,1,1,1.2,1.5c0.3,0.5,0.4,1.1,0.4,1.8c0,0.5-0.1,1-0.3,1.4s-0.4,0.8-0.7,1
	c-0.3,0.3-0.5,0.5-0.8,0.7c-0.3,0.2-0.5,0.4-0.7,0.7C9.1,89.1,9,89.3,9,89.6z M7.4,98.3c0.4,0,0.8,0,1.2-0.1s0.8-0.2,1.1-0.4
	c0.3-0.2,0.6-0.5,0.8-0.8c0.2-0.3,0.3-0.8,0.3-1.2c0-0.2,0-0.4-0.1-0.5c-0.1-0.2-0.1-0.3-0.2-0.5c-0.1-0.1-0.2-0.3-0.3-0.5
	c-0.1-0.2-0.3-0.3-0.3-0.4s-0.2-0.2-0.4-0.4c-0.2-0.2-0.3-0.3-0.4-0.3c-0.1,0-0.2-0.2-0.5-0.3c-0.2-0.2-0.4-0.3-0.4-0.3
	c-0.1,0-0.3,0-0.5,0c-0.4,0-0.8,0-1.2,0.1c-0.4,0.1-0.8,0.1-1.2,0.3s-0.8,0.3-1.1,0.5c-0.3,0.2-0.6,0.5-0.8,0.8
	c-0.2,0.3-0.3,0.7-0.3,1.2c0,0.5,0.1,1,0.4,1.4c0.3,0.4,0.6,0.7,1,0.9C5.1,97.8,5.5,98,6,98.1C6.5,98.2,6.9,98.3,7.4,98.3z
	 M7.4,88.5c0.3,0,0.6-0.1,0.9-0.2c0.3-0.1,0.5-0.3,0.7-0.5c0.4-0.4,0.6-1,0.6-1.8c0-0.4-0.1-0.9-0.2-1.4s-0.3-1-0.5-1.4
	c-0.2-0.5-0.5-0.9-0.9-1.2s-0.8-0.5-1.3-0.5c-0.3,0-0.6,0.1-0.9,0.2C5.4,82,5.1,82.2,5,82.4c-0.3,0.4-0.5,1-0.5,1.8
	c0,0.3,0,0.7,0.1,1.1s0.2,0.8,0.4,1.1c0.2,0.4,0.4,0.7,0.6,1S6,88,6.3,88.2C6.6,88.4,7,88.5,7.4,88.5z M16.5,88.5h2.4v1.2h-2.4v2.4
	h-1.2v-2.4h-2.4v-1.2h2.4v-2.4h1.2V88.5z"/>
<path id="fa-linkedin" fill="#FFFFFF" d="M5.2,103.4c0,0.5-0.2,1-0.6,1.4c-0.4,0.4-0.9,0.5-1.5,0.5h0c-0.6,0-1.1-0.2-1.5-0.5
	c-0.4-0.4-0.6-0.8-0.6-1.4c0-0.6,0.2-1,0.6-1.4s0.9-0.5,1.5-0.5s1.1,0.2,1.5,0.5S5.2,102.8,5.2,103.4z M5,106.8v11.1H1.3v-11.1H5z
	 M18.3,111.5v6.3h-3.7V112c0-0.8-0.2-1.4-0.5-1.8c-0.3-0.4-0.8-0.7-1.4-0.7c-0.5,0-0.9,0.1-1.2,0.4s-0.6,0.6-0.7,1
	c-0.1,0.2-0.1,0.5-0.1,0.9v6.2H7c0-3,0-5.4,0-7.2s0-2.9,0-3.3l0-0.5h3.7v1.6h0c0.1-0.2,0.3-0.4,0.5-0.6c0.2-0.2,0.4-0.4,0.6-0.6
	c0.3-0.2,0.6-0.4,1-0.5c0.4-0.1,0.8-0.2,1.3-0.2c1.3,0,2.3,0.4,3.1,1.3C17.9,108.7,18.3,109.9,18.3,111.5z"/>
<path id="fa-share-alt-red" fill="#E31B32" d="M34.7,11.4c1,0,1.8,0.3,2.5,1c0.7,0.7,1,1.5,1,2.5c0,1-0.3,1.8-1,2.5
	c-0.7,0.7-1.5,1-2.5,1c-1,0-1.8-0.3-2.5-1c-0.7-0.7-1-1.5-1-2.5c0-0.1,0-0.2,0-0.4l-4-2c-0.7,0.6-1.5,1-2.4,1c-1,0-1.8-0.3-2.5-1
	s-1-1.5-1-2.5c0-1,0.3-1.8,1-2.5c0.7-0.7,1.5-1,2.5-1c0.9,0,1.7,0.3,2.4,1l4-2c0-0.2,0-0.3,0-0.4c0-1,0.3-1.8,1-2.5
	c0.7-0.7,1.5-1,2.5-1c1,0,1.8,0.3,2.5,1c0.7,0.7,1,1.5,1,2.5c0,1-0.3,1.8-1,2.5s-1.5,1-2.5,1c-0.9,0-1.7-0.3-2.4-1l-4,2
	c0,0.2,0,0.3,0,0.4c0,0.1,0,0.2,0,0.4l4,2C33,11.7,33.8,11.4,34.7,11.4z"/>
<path id="fa-envelope-red" fill="#E31B32" d="M40,23.9c0,0.6-0.2,1.1-0.5,1.7c-0.4,0.5-0.8,1-1.4,1.4c-2.8,1.9-4.5,3.2-5.2,3.6
	c-0.1,0.1-0.2,0.2-0.5,0.3s-0.4,0.3-0.6,0.4c-0.2,0.1-0.4,0.2-0.6,0.4S30.8,32,30.6,32c-0.2,0.1-0.4,0.1-0.6,0.1h0h0
	c-0.2,0-0.4,0-0.6-0.1c-0.2-0.1-0.4-0.2-0.6-0.3s-0.4-0.3-0.6-0.4c-0.2-0.1-0.4-0.2-0.6-0.4s-0.4-0.3-0.5-0.3
	c-0.7-0.5-1.7-1.2-2.9-2s-2-1.4-2.3-1.6c-0.5-0.3-0.9-0.7-1.3-1.3S20,24.6,20,24.2c0-0.6,0.2-1.1,0.5-1.5c0.3-0.4,0.7-0.6,1.3-0.6
	h16.4c0.5,0,0.9,0.2,1.3,0.5C39.8,23,40,23.4,40,23.9z M40,27.2v8.9c0,0.5-0.2,0.9-0.5,1.3c-0.4,0.4-0.8,0.5-1.3,0.5H21.8
	c-0.5,0-0.9-0.2-1.3-0.5C20.2,37,20,36.6,20,36.1v-8.9c0.3,0.4,0.7,0.7,1.1,1c2.7,1.8,4.5,3.1,5.5,3.9c0.4,0.3,0.8,0.6,1,0.7
	c0.3,0.2,0.6,0.4,1.1,0.5c0.4,0.2,0.8,0.3,1.2,0.3h0h0c0.4,0,0.8-0.1,1.2-0.3c0.4-0.2,0.8-0.4,1.1-0.5c0.3-0.2,0.6-0.4,1-0.7
	c1.3-0.9,3.1-2.2,5.6-3.9C39.3,27.9,39.7,27.6,40,27.2z"/>
<path id="fa-twitter-red" fill="#E31B32" d="M38.8,44.6c-0.5,0.7-1.1,1.4-1.8,1.9c0,0.1,0,0.3,0,0.5c0,1-0.1,1.9-0.4,2.9
	c-0.3,1-0.7,1.9-1.3,2.8c-0.6,0.9-1.3,1.7-2.1,2.3c-0.8,0.7-1.8,1.2-2.9,1.6c-1.1,0.4-2.3,0.6-3.6,0.6c-2,0-3.9-0.5-5.5-1.6
	c0.3,0,0.6,0,0.9,0c1.7,0,3.2-0.5,4.5-1.5c-0.8,0-1.5-0.3-2.1-0.7c-0.6-0.5-1-1.1-1.3-1.8c0.2,0,0.5,0.1,0.7,0.1
	c0.3,0,0.6,0,0.9-0.1c-0.8-0.2-1.5-0.6-2.1-1.2c-0.5-0.7-0.8-1.4-0.8-2.3v0c0.5,0.3,1,0.4,1.6,0.5c-0.5-0.3-0.9-0.8-1.2-1.3
	c-0.3-0.5-0.4-1.1-0.4-1.7c0-0.7,0.2-1.3,0.5-1.8c0.9,1.1,2,2,3.3,2.7c1.3,0.7,2.7,1,4.1,1.1c-0.1-0.3-0.1-0.6-0.1-0.8
	c0-1,0.4-1.8,1.1-2.6s1.6-1.1,2.6-1.1c1,0,1.9,0.4,2.6,1.1c0.8-0.2,1.6-0.4,2.3-0.9c-0.3,0.9-0.8,1.5-1.6,2
	C37.4,45,38.1,44.9,38.8,44.6z"/>
<path id="fa-facebook-red" fill="#E31B32" d="M34.5,60.3v2.9h-1.8c-0.6,0-1.1,0.1-1.3,0.4c-0.2,0.3-0.3,0.7-0.3,1.2v2.1h3.3L34,70.2
	h-2.8v8.5h-3.4v-8.5h-2.8v-3.3h2.8v-2.4c0-1.4,0.4-2.5,1.2-3.2s1.8-1.1,3.1-1.1C33.1,60.1,33.9,60.2,34.5,60.3z"/>
<path id="fa-google-red" fill="#E31B32" d="M29,89.6c0,0.3,0.1,0.5,0.4,0.8c0.2,0.3,0.5,0.5,0.9,0.8c0.3,0.2,0.7,0.5,1,0.8
	c0.3,0.3,0.6,0.7,0.9,1.2c0.2,0.5,0.4,1,0.4,1.6c0,0.7-0.2,1.3-0.5,1.9c-0.5,0.9-1.3,1.6-2.4,2s-2.1,0.6-3.3,0.6
	c-1,0-1.9-0.2-2.8-0.5c-0.9-0.3-1.5-0.8-1.9-1.5c-0.3-0.4-0.4-0.9-0.4-1.5c0-0.6,0.2-1.2,0.5-1.7c0.3-0.5,0.8-0.9,1.3-1.3
	c1-0.6,2.5-1,4.5-1.1c-0.2-0.3-0.4-0.6-0.5-0.8c-0.1-0.2-0.2-0.5-0.2-0.8c0-0.3,0.1-0.6,0.2-0.9c-0.3,0-0.6,0-0.8,0
	c-1.1,0-2-0.4-2.8-1.1c-0.8-0.7-1.1-1.6-1.1-2.7c0-0.6,0.1-1.2,0.4-1.8c0.3-0.6,0.6-1.1,1.1-1.5c0.6-0.5,1.3-0.9,2-1.1
	c0.8-0.2,1.6-0.4,2.4-0.4H33l-1.5,1H30c0.6,0.5,1,1,1.2,1.5c0.3,0.5,0.4,1.1,0.4,1.8c0,0.5-0.1,1-0.3,1.4s-0.4,0.8-0.7,1
	c-0.3,0.3-0.5,0.5-0.8,0.7c-0.3,0.2-0.5,0.4-0.7,0.7C29.1,89.1,29,89.3,29,89.6z M27.4,98.3c0.4,0,0.8,0,1.2-0.1s0.8-0.2,1.1-0.4
	c0.3-0.2,0.6-0.5,0.8-0.8c0.2-0.3,0.3-0.8,0.3-1.2c0-0.2,0-0.4-0.1-0.5c-0.1-0.2-0.1-0.3-0.2-0.5c-0.1-0.1-0.2-0.3-0.3-0.5
	c-0.1-0.2-0.3-0.3-0.3-0.4s-0.2-0.2-0.4-0.4c-0.2-0.2-0.3-0.3-0.4-0.3c-0.1,0-0.2-0.2-0.5-0.3c-0.2-0.2-0.4-0.3-0.4-0.3
	c-0.1,0-0.3,0-0.5,0c-0.4,0-0.8,0-1.2,0.1c-0.4,0.1-0.8,0.1-1.2,0.3s-0.8,0.3-1.1,0.5c-0.3,0.2-0.6,0.5-0.8,0.8
	c-0.2,0.3-0.3,0.7-0.3,1.2c0,0.5,0.1,1,0.4,1.4c0.3,0.4,0.6,0.7,1,0.9c0.4,0.2,0.9,0.4,1.3,0.5C26.4,98.2,26.9,98.3,27.4,98.3z
	 M27.4,88.5c0.3,0,0.6-0.1,0.9-0.2c0.3-0.1,0.5-0.3,0.7-0.5c0.4-0.4,0.6-1,0.6-1.8c0-0.4-0.1-0.9-0.2-1.4s-0.3-1-0.5-1.4
	c-0.2-0.5-0.5-0.9-0.9-1.2s-0.8-0.5-1.3-0.5c-0.3,0-0.6,0.1-0.9,0.2c-0.3,0.1-0.5,0.3-0.7,0.6c-0.3,0.4-0.5,1-0.5,1.8
	c0,0.3,0,0.7,0.1,1.1s0.2,0.8,0.4,1.1c0.2,0.4,0.4,0.7,0.6,1s0.5,0.6,0.8,0.7C26.6,88.4,27,88.5,27.4,88.5z M36.4,88.5h2.4v1.2h-2.4
	v2.4h-1.2v-2.4h-2.4v-1.2h2.4v-2.4h1.2V88.5z"/>
<path id="fa-linkedin-red" fill="#E31B32" d="M25.6,103.7c0,0.5-0.2,1-0.6,1.4c-0.4,0.4-0.9,0.5-1.5,0.5h0c-0.6,0-1.1-0.2-1.5-0.5
	c-0.4-0.4-0.6-0.8-0.6-1.4c0-0.6,0.2-1,0.6-1.4s0.9-0.5,1.5-0.5s1.1,0.2,1.5,0.5S25.6,103.2,25.6,103.7z M25.3,107.1v11.1h-3.7
	v-11.1H25.3z M38.6,111.9v6.3h-3.7v-5.9c0-0.8-0.2-1.4-0.5-1.8c-0.3-0.4-0.8-0.7-1.4-0.7c-0.5,0-0.9,0.1-1.2,0.4s-0.6,0.6-0.7,1
	c-0.1,0.2-0.1,0.5-0.1,0.9v6.2h-3.7c0-3,0-5.4,0-7.2s0-2.9,0-3.3l0-0.5H31v1.6h0c0.1-0.2,0.3-0.4,0.5-0.6c0.2-0.2,0.4-0.4,0.6-0.6
	c0.3-0.2,0.6-0.4,1-0.5c0.4-0.1,0.8-0.2,1.3-0.2c1.3,0,2.3,0.4,3.1,1.3C38.2,109,38.6,110.2,38.6,111.9z"/>
</svg>
