<?xml version="1.0" encoding="utf-8"?>
<!-- Generator: Adobe Illustrator 19.2.1, SVG Export Plug-In . SVG Version: 6.00 Build 0)  -->
<svg version="1.1" id="Layer_1" xmlns="http://www.w3.org/2000/svg" xmlns:xlink="http://www.w3.org/1999/xlink" x="0px" y="0px"
	 width="30px" height="30px" viewBox="0 0 30 30" enable-background="new 0 0 30 30" xml:space="preserve">
<path fill="#FFFFFF" d="M14.3,10.4l-1.4,1.4c-0.1,0.1-0.2,0.2-0.4,0.2c-0.2,0-0.3-0.1-0.4-0.2L7.5,7.2l-4.6,4.6
	C2.8,11.9,2.7,12,2.5,12s-0.3-0.1-0.4-0.2l-1.4-1.4c-0.1-0.1-0.2-0.2-0.2-0.4c0-0.2,0.1-0.3,0.2-0.4l6.4-6.4C7.2,3.1,7.3,3,7.5,3
	c0.1,0,0.3,0.1,0.4,0.2l6.4,6.4c0.1,0.1,0.2,0.2,0.2,0.4C14.5,10.1,14.4,10.3,14.3,10.4z"/>
<path fill="#FFFFFF" d="M13.8,21.4l-6.4,6.4C7.3,27.9,7.1,28,7,28c-0.2,0-0.3-0.1-0.4-0.2l-6.4-6.4C0.1,21.3,0,21.1,0,21
	s0.1-0.3,0.2-0.4l1.4-1.4C1.7,19.1,1.8,19,2,19c0.2,0,0.3,0.1,0.4,0.2L7,23.8l4.6-4.6c0.1-0.1,0.2-0.2,0.4-0.2
	c0.1,0,0.3,0.1,0.4,0.2l1.4,1.4c0.1,0.1,0.2,0.2,0.2,0.4S13.9,21.3,13.8,21.4z"/>
<path fill="#E21E32" d="M29.3,10.4l-1.4,1.4c-0.1,0.1-0.2,0.2-0.4,0.2c-0.2,0-0.3-0.1-0.4-0.2l-4.6-4.6l-4.6,4.6
	c-0.1,0.1-0.2,0.2-0.4,0.2s-0.3-0.1-0.4-0.2l-1.4-1.4c-0.1-0.1-0.2-0.2-0.2-0.4c0-0.2,0.1-0.3,0.2-0.4l6.4-6.4
	C22.2,3.1,22.3,3,22.5,3c0.1,0,0.3,0.1,0.4,0.2l6.4,6.4c0.1,0.1,0.2,0.2,0.2,0.4C29.5,10.1,29.4,10.3,29.3,10.4z"/>
<path fill="#E21E32" d="M28.8,21.4l-6.4,6.4C22.3,27.9,22.1,28,22,28c-0.2,0-0.3-0.1-0.4-0.2l-6.4-6.4C15.1,21.3,15,21.1,15,21
	s0.1-0.3,0.2-0.4l1.4-1.4c0.1-0.1,0.2-0.2,0.4-0.2c0.2,0,0.3,0.1,0.4,0.2l4.6,4.6l4.6-4.6c0.1-0.1,0.2-0.2,0.4-0.2
	c0.1,0,0.3,0.1,0.4,0.2l1.4,1.4c0.1,0.1,0.2,0.2,0.2,0.4S28.9,21.3,28.8,21.4z"/>
</svg>
