<?xml version="1.0" encoding="utf-8"?>
<!-- Generator: Adobe Illustrator 19.1.0, SVG Export Plug-In . SVG Version: 6.00 Build 0)  -->
<svg version="1.1" id="Layer_1" xmlns="http://www.w3.org/2000/svg" xmlns:xlink="http://www.w3.org/1999/xlink" x="0px" y="0px"
	 viewBox="-569 369 443 29.5" style="enable-background:new -569 369 443 29.5;" xml:space="preserve">
<style type="text/css">
	.st0{fill:#FFFFFF;}
</style>
<g>
	<path class="st0" d="M-563.1,375.9h11.6v1.3h-5v14.6h-1.5v-14.6h-5V375.9z"/>
	<path class="st0" d="M-548,384.6v7.2h-1.5v-15.9h6.2c3.5,0,5.4,1.2,5.4,4.2c0,2-0.8,3.1-2.6,3.9c1.9,0.6,2,2.6,2,4.3
		c0.1,2.4,0.3,3.1,0.7,3.4v0.2h-1.7c-0.6-1.1-0.5-4.1-0.7-5.3c-0.4-1.7-1.7-1.9-3.2-1.9H-548z M-543.3,383.3c2.2,0,3.9-0.9,3.9-3.2
		c0-2.4-1.9-3-3.9-3h-4.8v6.1H-543.3z"/>
	<path class="st0" d="M-534.2,391.8v-15.9h1.5v15.9H-534.2z"/>
	<path class="st0" d="M-527.1,378L-527.1,378l0,13.9h-1.5v-15.9h1.7l9.2,13.9h0v-13.9h1.5v15.9h-1.7L-527.1,378z"/>
	<path class="st0" d="M-512.2,391.8v-15.9h1.5v15.9H-512.2z"/>
	<path class="st0" d="M-508,375.9h11.6v1.3h-5v14.6h-1.5v-14.6h-5V375.9z"/>
	<path class="st0" d="M-489.4,383.6l4.8-7.7h1.7l-5.8,9v6.9h-1.5V385l-5.7-9.1h1.7L-489.4,383.6z"/>
	<path class="st0" d="M-474.7,391.8v-15.9h2.3l5.2,14h0l5.1-14h2.3v15.9h-1.5v-14.2h0l-5.2,14.2h-1.4l-5.2-14.2h0v14.2H-474.7z"/>
	<path class="st0" d="M-455.8,391.8v-15.9h1.5v15.9H-455.8z"/>
	<path class="st0" d="M-448.7,384.6v7.2h-1.5v-15.9h6.2c3.5,0,5.4,1.2,5.4,4.2c0,2-0.8,3.1-2.6,3.9c1.9,0.6,2,2.6,2,4.3
		c0.1,2.4,0.3,3.1,0.7,3.4v0.2h-1.7c-0.6-1.1-0.5-4.1-0.7-5.3c-0.4-1.7-1.7-1.9-3.2-1.9H-448.7z M-444,383.3c2.2,0,3.9-0.9,3.9-3.2
		c0-2.4-1.9-3-3.9-3h-4.8v6.1H-444z"/>
	<path class="st0" d="M-434,384.6v7.2h-1.5v-15.9h6.2c3.5,0,5.4,1.2,5.4,4.2c0,2-0.8,3.1-2.6,3.9c1.9,0.6,2,2.6,2,4.3
		c0.1,2.4,0.3,3.1,0.7,3.4v0.2h-1.7c-0.6-1.1-0.5-4.1-0.7-5.3c-0.4-1.7-1.7-1.9-3.2-1.9H-434z M-429.3,383.3c2.2,0,3.9-0.9,3.9-3.2
		c0-2.4-1.9-3-3.9-3h-4.8v6.1H-429.3z"/>
	<path class="st0" d="M-414,375.5c5,0,7.5,3.7,7.5,8.4c0,4.6-2.5,8.3-7.4,8.3c-4.9,0-7.4-3.8-7.4-8.3
		C-421.4,379.3-418.8,375.5-414,375.5z M-408.1,383.9c0-4.4-2.3-7.1-5.9-7.1c-4.1,0-5.9,3.4-5.9,7.1c0,3.8,1.8,7.1,5.9,7.1
		C-409.8,391-408.1,387.6-408.1,383.9z"/>
	<path class="st0" d="M-402.1,384.6v7.2h-1.5v-15.9h6.2c3.5,0,5.4,1.2,5.4,4.2c0,2-0.8,3.1-2.6,3.9c1.9,0.6,2,2.6,2,4.3
		c0.1,2.4,0.3,3.1,0.7,3.4v0.2h-1.7c-0.6-1.1-0.5-4.1-0.7-5.3c-0.4-1.7-1.7-1.9-3.2-1.9H-402.1z M-397.4,383.3
		c2.2,0,3.9-0.9,3.9-3.2c0-2.4-1.9-3-3.9-3h-4.8v6.1H-397.4z"/>
	<path class="st0" d="M-373.2,376h3.1v15.8h-3.3l-6.5-11.3h0v11.3h-3.1V376h3.5l6.3,11h0V376z"/>
	<path class="st0" d="M-360,375.6c2.1,0,7.6,0.9,7.6,8.3s-5.5,8.3-7.6,8.3s-7.6-0.9-7.6-8.3S-362.1,375.6-360,375.6z M-360,389.4
		c1.8,0,4.3-1.1,4.3-5.5c0-4.4-2.5-5.5-4.3-5.5s-4.3,1.1-4.3,5.5C-364.3,388.3-361.8,389.4-360,389.4z"/>
	<path class="st0" d="M-349.8,376h8c4.2,0,5,3.1,5,4.5c0,1.7-0.9,3.2-2.4,3.8c1.3,0.6,2,1.1,2,4c0,2.3,0,2.9,0.7,3.2v0.4h-3.7
		c-0.2-0.8-0.4-1.6-0.4-3.2c0-2.2-0.1-3-2.6-3h-3.4v6.2h-3.2V376z M-342.6,383c1.7,0,2.6-0.6,2.6-2.2c0-0.8-0.4-2.1-2.3-2.1h-4.1
		v4.2H-342.6z"/>
	<path class="st0" d="M-327.6,391.8h-3.3v-13h-4.8V376h12.9v2.8h-4.8V391.8z"/>
	<path class="st0" d="M-317.6,384.7v7.1h-3.3V376h3.3v6h6.2v-6h3.3v15.8h-3.3v-7.1H-317.6z"/>
	<path class="st0" d="M-301.8,376h3.5c2,8.7,2.2,9.8,2.5,11.6h0c0.3-1.7,0.5-3.3,2.2-11.6h3.5c1.9,8.7,2,9.5,2.4,11.6h0
		c0.3-1.5,0.5-2.9,2.6-11.6h3.4l-4.5,15.8h-3.2c-1.6-7.8-1.9-9.3-2.4-12.4h0c-0.5,3-0.8,4.2-2.4,12.4h-3.1L-301.8,376z"/>
	<path class="st0" d="M-268,378.8h-8.4v3.3h7.7v2.8h-7.7v4.1h8.8v2.8h-12V376h11.7V378.8z"/>
	<path class="st0" d="M-262.6,387c0,0.9,0.5,2.6,3.4,2.6c1.6,0,3.3-0.4,3.3-2.1c0-1.2-1.2-1.6-2.9-2l-1.7-0.4c-2.6-0.6-5-1.2-5-4.7
		c0-1.8,0.9-4.9,6.1-4.9c4.9,0,6.2,3.2,6.2,5.1h-3.2c-0.1-0.7-0.4-2.4-3.2-2.4c-1.3,0-2.8,0.5-2.8,1.9c0,1.2,1,1.5,1.7,1.7l3.9,0.9
		c2.2,0.5,4.1,1.4,4.1,4.3c0,4.8-4.9,5.2-6.2,5.2c-5.8,0-6.8-3.3-6.8-5.3H-262.6z"/>
	<path class="st0" d="M-244,391.8h-3.3v-13h-4.8V376h12.9v2.8h-4.8V391.8z"/>
	<path class="st0" d="M-217.3,391.8h-3.7l-1.1-1.3c-0.9,0.9-2.1,1.8-4.5,1.8c-3,0-4.9-2.1-4.9-4.5c0-1.5,0.4-3,3-4.6l0.3-0.2
		c-0.7-0.8-1.4-1.9-1.4-3.3c0-2.2,1.7-3.6,4.2-3.6c1.7,0,3.9,1.1,3.9,3.7c0,2.2-2,3.4-2.6,3.8l2.2,2.8c0.4-0.6,0.7-1.4,0.8-2.6h2.7
		c-0.2,2.1-0.8,3.4-1.8,4.8L-217.3,391.8z M-226.6,384.9c-1.3,0.9-1.9,1.4-1.9,2.6c0,0.6,0.5,2.1,2.3,2.1c1,0,1.9-0.6,2.4-1.1
		L-226.6,384.9z M-225.5,378.3c-0.7,0-1.3,0.4-1.3,1.3c0,0.5,0.4,1.2,1.1,2c0.8-0.5,1.5-1.1,1.5-2
		C-224.2,378.7-224.8,378.3-225.5,378.3z"/>
	<path class="st0" d="M-212.1,376h3.5c2,8.7,2.2,9.8,2.5,11.6h0c0.3-1.7,0.5-3.3,2.2-11.6h3.5c1.9,8.7,2,9.5,2.4,11.6h0
		c0.3-1.5,0.5-2.9,2.6-11.6h3.4l-4.5,15.8h-3.2c-1.6-7.8-1.9-9.3-2.4-12.4h0c-0.5,3-0.8,4.2-2.4,12.4h-3.1L-212.1,376z"/>
	<path class="st0" d="M-189.1,391.8h-3.5l5.6-15.8h3.8l5.6,15.8h-3.6l-1-3.3h-5.8L-189.1,391.8z M-187.1,385.8h4l-2-6.3h0
		L-187.1,385.8z"/>
	<path class="st0" d="M-172.1,389h7.9v2.9h-11.2V376h3.3V389z"/>
	<path class="st0" d="M-150.3,378.8h-8.4v3.3h7.7v2.8h-7.7v4.1h8.8v2.8h-12V376h11.7V378.8z"/>
	<path class="st0" d="M-144.8,387c0,0.9,0.5,2.6,3.4,2.6c1.6,0,3.3-0.4,3.3-2.1c0-1.2-1.2-1.6-2.9-2l-1.7-0.4c-2.6-0.6-5-1.2-5-4.7
		c0-1.8,0.9-4.9,6.1-4.9c4.9,0,6.2,3.2,6.2,5.1h-3.2c-0.1-0.7-0.4-2.4-3.2-2.4c-1.3,0-2.8,0.5-2.8,1.9c0,1.2,1,1.5,1.7,1.7l3.9,0.9
		c2.2,0.5,4.1,1.4,4.1,4.3c0,4.8-4.9,5.2-6.2,5.2c-5.8,0-6.8-3.3-6.8-5.3H-144.8z"/>
</g>
</svg>
